<svg xmlns="http://www.w3.org/2000/svg" xmlns:xlink="http://www.w3.org/1999/xlink" width="1920" zoomAndPan="magnify" viewBox="0 0 1440 809.999993" height="1080" preserveAspectRatio="xMidYMid meet" version="1.0"><defs><clipPath id="c1beaf3792"><path d="M 435.480469 342 L 1018.941406 342 L 1018.941406 619 L 435.480469 619 Z M 435.480469 342 " clip-rule="nonzero"/></clipPath><clipPath id="89376ede86"><path d="M 379.214844 241 L 783 241 L 783 476 L 379.214844 476 Z M 379.214844 241 " clip-rule="nonzero"/></clipPath><clipPath id="59539d65db"><path d="M 379.214844 388 L 527 388 L 527 491 L 379.214844 491 Z M 379.214844 388 " clip-rule="nonzero"/></clipPath><clipPath id="b1fd82fb16"><path d="M 711.253906 708.140625 L 746 708.140625 L 746 728.6875 L 711.253906 728.6875 Z M 711.253906 708.140625 " clip-rule="nonzero"/></clipPath></defs><path fill="#343c6b" d="M 532.003906 346.59375 C 532.167969 347.359375 532.277344 348.070312 532.332031 348.78125 C 523.363281 343.3125 514.671875 337.351562 506.25 331.007812 C 485.144531 315.257812 465.894531 296.988281 448.890625 276.589844 L 448.398438 276.042969 C 430.957031 255.09375 432.160156 224.628906 451.132812 205.105469 C 461.414062 194.5 475.191406 188.8125 490.011719 189.027344 C 504.773438 189.246094 518.390625 195.425781 528.34375 206.367188 L 534.628906 213.253906 L 531.839844 215.828125 L 525.554688 208.878906 C 516.3125 198.761719 503.679688 193.074219 489.957031 192.855469 C 476.230469 192.636719 463.382812 197.941406 453.867188 207.730469 C 436.261719 225.890625 435.167969 254.164062 451.296875 273.582031 L 451.789062 274.183594 C 467.265625 292.832031 484.761719 309.621094 503.789062 324.335938 C 512.484375 331.171875 521.5625 337.515625 530.910156 343.421875 L 531.566406 345.117188 C 531.675781 345.609375 531.894531 346.101562 532.003906 346.59375 " fill-opacity="1" fill-rule="nonzero"/><path fill="#343c6b" d="M 694.238281 116.34375 L 691.394531 118.859375 L 685.109375 111.96875 C 675.867188 101.851562 663.234375 96.105469 649.511719 95.886719 C 635.785156 95.671875 622.992188 100.972656 613.421875 110.820312 C 595.816406 128.921875 594.722656 157.25 610.90625 176.667969 L 611.398438 177.269531 C 620.75 188.484375 630.757812 199.039062 641.417969 208.828125 C 648.304688 215.28125 655.46875 221.351562 662.90625 227.09375 L 663.5625 232.398438 C 656.179688 226.820312 649.074219 220.914062 642.183594 214.625 C 630.152344 203.90625 618.890625 192.199219 608.445312 179.675781 L 607.957031 179.074219 C 590.566406 158.183594 591.714844 127.664062 610.6875 108.195312 C 620.964844 97.582031 634.800781 91.839844 649.566406 92.117188 C 664.328125 92.332031 678 98.460938 687.949219 109.394531 L 694.238281 116.34375 " fill-opacity="1" fill-rule="nonzero"/><g clip-path="url(#c1beaf3792)"><path fill="#eaf0ff" d="M 806.816406 618.65625 L 535.320312 618.65625 L 547.117188 603.789062 L 441.574219 542.570312 C 433.921875 538.152344 433.902344 527.109375 441.542969 522.664062 L 753.601562 342.039062 L 1018.9375 498.058594 L 806.816406 618.65625 " fill-opacity="1" fill-rule="nonzero"/></g><path fill="#2e3666" d="M 636.9375 269.578125 L 773.003906 346.824219 L 534.992188 485.726562 L 400.015625 406.292969 L 636.9375 269.578125 " fill-opacity="1" fill-rule="nonzero"/><path fill="#343c6b" d="M 773.003906 341.945312 L 773.003906 479.847656 L 534.996094 618.753906 L 534.996094 480.84375 L 773.003906 341.945312 " fill-opacity="1" fill-rule="nonzero"/><path fill="#445393" d="M 400.011719 401.421875 L 400.011719 539.300781 L 534.996094 618.753906 L 534.996094 480.84375 L 400.011719 401.421875 " fill-opacity="1" fill-rule="nonzero"/><g clip-path="url(#89376ede86)"><path fill="#b8c9ff" d="M 634.804688 241.238281 L 782.957031 325.265625 L 526.195312 475.113281 L 379.214844 388.734375 L 634.804688 241.238281 " fill-opacity="1" fill-rule="nonzero"/></g><path fill="#93a1de" d="M 782.957031 325.265625 L 782.957031 340.238281 L 526.199219 490.089844 L 526.195312 475.113281 L 782.957031 325.265625 " fill-opacity="1" fill-rule="nonzero"/><g clip-path="url(#59539d65db)"><path fill="#d4dfff" d="M 379.214844 388.734375 L 379.214844 403.683594 L 526.199219 490.089844 L 526.195312 475.113281 L 379.214844 388.734375 " fill-opacity="1" fill-rule="nonzero"/></g><path fill="#ef8641" d="M 669.921875 117.449219 C 669.921875 115.019531 670.4375 113.070312 671.273438 111.582031 L 669.085938 111.625 L 673.960938 109 C 675.679688 108.242188 677.796875 108.390625 680.125 109.730469 C 685.023438 112.558594 689.109375 119.527344 690.097656 126.234375 C 690.109375 126.324219 690.121094 126.425781 690.132812 126.511719 L 705.660156 244.492188 C 705.699219 245.011719 705.773438 245.53125 705.773438 246.035156 C 705.773438 250.328125 704.253906 253.226562 701.929688 254.378906 L 698.855469 256.214844 L 698.484375 254.804688 C 697.554688 254.640625 696.589844 254.34375 695.570312 253.753906 C 690.324219 250.722656 686.054688 242.960938 685.480469 235.839844 L 670.234375 120.945312 C 670.035156 119.765625 669.921875 118.59375 669.921875 117.449219 " fill-opacity="1" fill-rule="nonzero"/><path fill="#ffd474" d="M 663.378906 120.042969 C 663.378906 112.527344 667.945312 109.074219 673.585938 112.328125 C 678.480469 115.15625 682.566406 122.121094 683.554688 128.832031 C 683.566406 128.921875 683.578125 129.019531 683.59375 129.109375 L 699.121094 247.089844 C 699.160156 247.605469 699.230469 248.128906 699.230469 248.632812 C 699.230469 256.148438 694.664062 259.605469 689.027344 256.351562 C 683.785156 253.320312 679.511719 245.558594 678.9375 238.433594 L 663.691406 123.539062 C 663.492188 122.359375 663.378906 121.191406 663.378906 120.042969 " fill-opacity="1" fill-rule="nonzero"/><path fill="#ef8641" d="M 680.886719 83.59375 C 684.8125 81.21875 689.960938 81.347656 695.617188 84.613281 C 698.613281 86.34375 701.46875 88.792969 704.074219 91.734375 L 658.992188 117.503906 L 637 108.707031 L 680.886719 83.59375 " fill-opacity="1" fill-rule="nonzero"/><path fill="#ffb451" d="M 704.074219 91.734375 L 756.738281 93 L 725.699219 110.675781 L 721.195312 117.070312 L 718.957031 118.949219 L 711.742188 118.773438 L 658.992188 117.503906 L 704.074219 91.734375 " fill-opacity="1" fill-rule="nonzero"/><path fill="#ef8641" d="M 756.738281 93 L 770.652344 84.976562 C 774.484375 83.09375 779.34375 83.324219 784.683594 86.40625 C 796.960938 93.492188 806.910156 112.511719 806.910156 128.882812 C 806.910156 137.847656 803.914062 144.132812 799.199219 146.84375 L 798.898438 147.039062 C 798.792969 147.097656 754.339844 172.5 754.339844 172.5 L 721.886719 123.382812 L 725.8125 110.617188 L 756.738281 93 " fill-opacity="1" fill-rule="nonzero"/><path fill="#ffd474" d="M 650.535156 110.382812 C 653.527344 112.109375 656.386719 114.5625 658.992188 117.503906 L 718.957031 118.949219 C 722.226562 109.886719 730.226562 106.761719 739.597656 112.171875 C 751.875 119.261719 761.824219 138.28125 761.824219 154.648438 C 761.824219 171.023438 751.875 178.546875 739.597656 171.460938 C 736.667969 169.765625 733.875 167.378906 731.316406 164.523438 L 670.816406 163.816406 C 667.347656 172.160156 659.578125 174.890625 650.535156 169.667969 C 638.257812 162.578125 628.304688 143.558594 628.304688 127.191406 C 628.304688 110.816406 638.257812 103.292969 650.535156 110.382812 " fill-opacity="1" fill-rule="nonzero"/><path fill="#445393" d="M 699.40625 130.632812 L 671.035156 129.953125 C 670.300781 129.9375 669.714844 129.324219 669.730469 128.585938 C 669.746094 127.851562 670.453125 127.246094 671.097656 127.28125 L 699.453125 127.960938 C 700.191406 127.976562 700.773438 128.59375 700.761719 129.328125 C 700.746094 130.054688 700.132812 130.632812 699.40625 130.632812 " fill-opacity="1" fill-rule="nonzero"/><path fill="#445393" d="M 702.25 138.609375 L 673.875 137.925781 C 673.136719 137.910156 672.554688 137.296875 672.570312 136.558594 C 672.585938 135.820312 673.289062 135.378906 673.9375 135.253906 L 702.296875 135.9375 C 703.035156 135.953125 703.613281 136.566406 703.601562 137.304688 C 703.582031 138.03125 702.972656 138.609375 702.25 138.609375 " fill-opacity="1" fill-rule="nonzero"/><path fill="#445393" d="M 705.367188 146.585938 L 676.992188 145.898438 C 676.253906 145.882812 675.671875 145.269531 675.6875 144.535156 C 675.703125 143.796875 676.410156 143.242188 677.058594 143.226562 L 705.414062 143.914062 C 706.15625 143.929688 706.734375 144.542969 706.71875 145.28125 C 706.703125 146.003906 706.09375 146.585938 705.367188 146.585938 " fill-opacity="1" fill-rule="nonzero"/><path fill="#445393" d="M 708.257812 154.558594 L 679.886719 153.875 C 679.144531 153.859375 678.566406 153.246094 678.582031 152.511719 C 678.597656 151.773438 679.300781 151.164062 679.949219 151.203125 L 708.304688 151.886719 C 709.046875 151.902344 709.625 152.519531 709.609375 153.257812 C 709.59375 153.980469 708.984375 154.558594 708.257812 154.558594 " fill-opacity="1" fill-rule="nonzero"/><path fill="#343c6b" d="M 706.316406 276.863281 C 694.507812 271.144531 679.113281 267.675781 662.261719 267.675781 C 645.40625 267.675781 630.011719 271.144531 618.207031 276.863281 L 594.953125 276.863281 L 594.953125 305.28125 C 594.953125 326.050781 625.085938 342.886719 662.261719 342.886719 C 699.433594 342.886719 729.566406 326.050781 729.566406 305.28125 L 729.566406 276.863281 L 706.316406 276.863281 " fill-opacity="1" fill-rule="nonzero"/><path fill="#445393" d="M 594.953125 276.863281 C 594.953125 297.632812 625.085938 314.46875 662.261719 314.46875 C 699.433594 314.46875 729.566406 297.632812 729.566406 276.863281 C 729.566406 256.09375 699.433594 239.257812 662.261719 239.257812 C 625.085938 239.257812 594.953125 256.09375 594.953125 276.863281 " fill-opacity="1" fill-rule="nonzero"/><path fill="#343c6b" d="M 699.355469 243.773438 C 689.410156 238.960938 676.449219 236.039062 662.261719 236.039062 C 648.070312 236.039062 635.105469 238.960938 625.164062 243.773438 L 605.585938 252.253906 L 605.585938 267.707031 C 605.585938 285.191406 630.957031 299.371094 662.261719 299.371094 C 693.558594 299.371094 718.933594 285.191406 718.933594 267.707031 L 718.933594 252.253906 L 699.355469 243.773438 " fill-opacity="1" fill-rule="nonzero"/><path fill="#445393" d="M 605.585938 252.253906 C 605.585938 269.738281 630.957031 283.917969 662.261719 283.917969 C 693.558594 283.917969 718.933594 269.738281 718.933594 252.253906 C 718.933594 234.761719 693.558594 220.585938 662.261719 220.585938 C 630.957031 220.585938 605.585938 234.761719 605.585938 252.253906 " fill-opacity="1" fill-rule="nonzero"/><path fill="#ffb451" d="M 647.492188 197.015625 C 650.046875 195.457031 653.410156 195.554688 657.09375 197.679688 C 657.09375 197.679688 694.175781 219.136719 694.3125 219.214844 C 702.292969 223.824219 708.765625 236.191406 708.765625 246.835938 C 708.765625 252.757812 706.757812 256.875 703.609375 258.582031 L 674.109375 275.617188 L 617.996094 214.027344 L 647.492188 197.015625 " fill-opacity="1" fill-rule="nonzero"/><path fill="#ffd474" d="M 627.40625 214.808594 C 627.40625 214.808594 664.488281 236.265625 664.621094 236.34375 C 672.605469 240.953125 679.074219 253.320312 679.074219 263.964844 C 679.074219 274.285156 672.992188 279.171875 665.351562 275.265625 L 627.40625 253.359375 C 619.425781 248.75 612.957031 236.382812 612.957031 225.738281 C 612.957031 215.09375 619.425781 210.203125 627.40625 214.808594 " fill-opacity="1" fill-rule="nonzero"/><path fill="#ef8641" d="M 638.996094 135 C 638.996094 132.570312 639.511719 130.625 640.347656 129.132812 L 638.160156 129.175781 L 643.039062 126.550781 C 644.753906 125.796875 646.875 125.9375 649.199219 127.28125 C 654.101562 130.113281 658.183594 137.074219 659.171875 143.785156 C 659.183594 143.875 659.199219 143.972656 659.207031 144.0625 L 674.738281 262.046875 C 674.777344 262.5625 674.851562 263.082031 674.851562 263.589844 C 674.851562 267.878906 673.332031 270.78125 671.007812 271.929688 L 667.933594 273.769531 L 667.558594 272.355469 C 666.632812 272.191406 665.664062 271.894531 664.644531 271.304688 C 659.402344 268.273438 655.128906 260.511719 654.554688 253.390625 L 639.308594 138.496094 C 639.109375 137.316406 638.996094 136.148438 638.996094 135 " fill-opacity="1" fill-rule="nonzero"/><path fill="#ffb451" d="M 667.9375 266.199219 C 667.9375 273.691406 663.34375 277.136719 657.714844 273.910156 C 652.464844 270.847656 648.199219 263.136719 647.648438 255.96875 L 642.183594 214.625 L 641.417969 208.828125 L 632.394531 141.121094 C 632.230469 139.914062 632.066406 138.765625 632.066406 137.617188 C 632.066406 130.070312 636.660156 126.625 642.292969 129.90625 C 647.160156 132.695312 651.261719 139.695312 652.242188 146.367188 C 652.300781 146.644531 662.90625 227.09375 662.90625 227.09375 L 663.5625 232.398438 L 667.828125 264.667969 C 667.828125 265.15625 667.9375 265.707031 667.9375 266.199219 " fill-opacity="1" fill-rule="nonzero"/><path fill="#9dacf0" d="M 669.710938 266.539062 C 669.710938 275.367188 664.34375 279.425781 657.71875 275.605469 C 651.097656 271.78125 645.730469 261.523438 645.730469 252.6875 C 645.730469 243.859375 651.097656 239.800781 657.71875 243.621094 C 664.34375 247.445312 669.710938 257.707031 669.710938 266.539062 " fill-opacity="1" fill-rule="nonzero"/><path fill="#343c6b" d="M 663.378906 150.832031 C 663.378906 138.566406 655.925781 124.320312 646.726562 119.007812 C 642.65625 116.65625 638.925781 116.378906 636.03125 117.945312 L 628.410156 122.203125 L 649.925781 168.484375 L 657.871094 164.152344 C 661.253906 162.039062 663.378906 157.382812 663.378906 150.832031 " fill-opacity="1" fill-rule="nonzero"/><path fill="#445393" d="M 656.242188 154.726562 C 656.242188 166.996094 648.785156 172.628906 639.589844 167.320312 C 630.394531 162.011719 622.9375 147.761719 622.9375 135.496094 C 622.9375 123.234375 630.394531 117.59375 639.589844 122.90625 C 648.785156 128.214844 656.242188 142.464844 656.242188 154.726562 " fill-opacity="1" fill-rule="nonzero"/><path fill="#ef8641" d="M 646.839844 150.304688 C 646.839844 144.074219 643.054688 136.835938 638.382812 134.140625 C 636.3125 132.945312 634.417969 132.804688 632.949219 133.597656 L 629.078125 135.761719 L 640.003906 159.273438 L 644.039062 157.070312 C 645.761719 156 646.839844 153.632812 646.839844 150.304688 " fill-opacity="1" fill-rule="nonzero"/><path fill="#ffd474" d="M 643.214844 152.285156 C 643.214844 158.515625 639.429688 161.378906 634.757812 158.679688 C 630.085938 155.984375 626.296875 148.746094 626.296875 142.515625 C 626.296875 136.285156 630.085938 133.421875 634.757812 136.121094 C 639.429688 138.816406 643.214844 146.054688 643.214844 152.285156 " fill-opacity="1" fill-rule="nonzero"/><path fill="#343c6b" d="M 751.859375 153.875 C 751.859375 141.613281 744.402344 127.363281 735.207031 122.054688 C 731.136719 119.703125 727.402344 119.425781 724.511719 120.988281 L 716.890625 125.25 L 738.40625 171.53125 L 746.351562 167.199219 C 749.734375 165.085938 751.859375 160.425781 751.859375 153.875 " fill-opacity="1" fill-rule="nonzero"/><path fill="#445393" d="M 744.722656 157.773438 C 744.722656 170.039062 737.265625 175.675781 728.070312 170.367188 C 718.875 165.054688 711.417969 150.808594 711.417969 138.542969 C 711.417969 126.277344 718.875 120.640625 728.070312 125.953125 C 737.265625 131.261719 744.722656 145.511719 744.722656 157.773438 " fill-opacity="1" fill-rule="nonzero"/><path fill="#ef8641" d="M 735.320312 153.351562 C 735.320312 147.121094 731.53125 139.882812 726.863281 137.1875 C 724.792969 135.992188 722.894531 135.851562 721.429688 136.644531 L 717.554688 138.808594 L 728.484375 162.320312 L 732.519531 160.117188 C 734.238281 159.042969 735.320312 156.679688 735.320312 153.351562 " fill-opacity="1" fill-rule="nonzero"/><path fill="#ffd474" d="M 731.695312 155.332031 C 731.695312 161.5625 727.90625 164.425781 723.238281 161.726562 C 718.5625 159.027344 714.777344 151.792969 714.777344 145.558594 C 714.777344 139.328125 718.5625 136.464844 723.238281 139.164062 C 727.90625 141.863281 731.695312 149.101562 731.695312 155.332031 " fill-opacity="1" fill-rule="nonzero"/><path fill="#ffd474" d="M 773.441406 139.398438 C 773.441406 143.742188 774.855469 146.816406 777.097656 148.183594 L 844.632812 186.984375 L 861.664062 157.847656 L 791.542969 117.582031 C 789.640625 116.558594 787.148438 116.703125 784.464844 118.265625 C 778.367188 121.832031 773.441406 131.25 773.441406 139.398438 " fill-opacity="1" fill-rule="nonzero"/><path fill="#8194ec" d="M 854.496094 184.898438 C 848.015625 189.769531 842.082031 188.070312 841.230469 181.101562 C 840.378906 174.132812 844.945312 164.535156 851.417969 159.660156 C 857.898438 154.789062 863.835938 156.484375 864.683594 163.457031 C 865.535156 170.425781 860.972656 180.023438 854.496094 184.898438 " fill-opacity="1" fill-rule="nonzero"/><path fill="#d4dfff" d="M 865.199219 223.808594 L 865.230469 268.109375 L 867.855469 272.046875 L 866.582031 271.289062 L 861.800781 266.074219 L 861.785156 221.839844 L 865.199219 223.808594 " fill-opacity="1" fill-rule="nonzero"/><path fill="#c1d1ff" d="M 869.671875 214.789062 L 873.082031 216.785156 L 865.199219 223.808594 L 861.785156 221.839844 L 869.671875 214.789062 " fill-opacity="1" fill-rule="nonzero"/><path fill="#c5d4ff" d="M 873.082031 216.785156 L 881.300781 212.058594 L 877.75 209.875 L 869.671875 214.789062 L 873.082031 216.785156 " fill-opacity="1" fill-rule="nonzero"/><path fill="#b8c9ff" d="M 873.476562 263.3125 L 875.984375 267.199219 L 867.855469 272.046875 L 865.230469 268.109375 L 873.476562 263.3125 " fill-opacity="1" fill-rule="nonzero"/><path fill="#97b1f4" d="M 873.082031 216.785156 L 881.300781 212.058594 L 873.417969 219.0625 L 865.199219 223.808594 L 873.082031 216.785156 " fill-opacity="1" fill-rule="nonzero"/><path fill="#93a1de" d="M 873.417969 219.0625 L 873.476562 263.3125 L 865.230469 268.109375 L 865.199219 223.808594 L 873.417969 219.0625 " fill-opacity="1" fill-rule="nonzero"/><path fill="#c5d4ff" d="M 876.890625 219.046875 L 885.070312 214.285156 L 881.222656 211.914062 L 873.039062 216.890625 L 876.890625 219.046875 " fill-opacity="1" fill-rule="nonzero"/><path fill="#c1d1ff" d="M 876.890625 219.046875 L 882.917969 234.042969 L 879.058594 231.8125 L 873.039062 216.890625 L 876.890625 219.046875 " fill-opacity="1" fill-rule="nonzero"/><path fill="#d4dfff" d="M 882.917969 273.488281 L 876.933594 276.96875 L 875.984375 276.355469 L 879.058594 272.390625 L 879.058594 231.8125 L 882.917969 234.042969 L 882.917969 273.488281 " fill-opacity="1" fill-rule="nonzero"/><path fill="#97b1f4" d="M 876.890625 219.046875 L 885.070312 214.285156 L 891.117188 229.308594 L 882.917969 234.042969 L 876.890625 219.046875 " fill-opacity="1" fill-rule="nonzero"/><path fill="#93a1de" d="M 891.117188 229.308594 L 891.164062 268.6875 L 882.917969 273.488281 L 882.917969 234.042969 L 891.117188 229.308594 " fill-opacity="1" fill-rule="nonzero"/><path fill="#6275b3" d="M 893.464844 159.941406 L 847.640625 226.242188 L 830.609375 216.734375 C 826.457031 214.785156 823.40625 210.582031 823.40625 205.324219 L 823.40625 187.765625 C 823.40625 178.703125 828.210938 170.351562 836.011719 165.847656 L 863.175781 150.183594 C 867.480469 147.679688 872.28125 148.082031 875.984375 150.285156 L 893.464844 159.941406 " fill-opacity="1" fill-rule="nonzero"/><path fill="#343c6b" d="M 880.828125 205.574219 L 880.832031 178.210938 L 865.617188 187.058594 L 865.617188 214.476562 L 859.617188 217.984375 L 859.617188 225.039062 L 886.828125 209.824219 L 886.828125 202.070312 L 880.828125 205.574219 " fill-opacity="1" fill-rule="nonzero"/><path fill="#ff182b" d="M 862.1875 221.828125 C 862.1875 226.265625 868.621094 229.863281 876.5625 229.863281 C 884.5 229.863281 890.941406 226.265625 890.941406 221.828125 C 890.941406 217.390625 884.5 213.796875 876.5625 213.796875 C 868.621094 213.796875 862.1875 217.390625 862.1875 221.828125 " fill-opacity="1" fill-rule="nonzero"/><path fill="#343c6b" d="M 889.566406 202.988281 C 886.082031 201.300781 881.535156 200.277344 876.5625 200.277344 C 871.585938 200.277344 867.046875 201.300781 863.558594 202.988281 L 856.699219 205.960938 L 856.699219 229.914062 C 856.699219 236.046875 865.589844 241.015625 876.5625 241.015625 C 887.53125 241.015625 896.429688 236.046875 896.429688 229.914062 L 896.429688 205.960938 L 889.566406 202.988281 " fill-opacity="1" fill-rule="nonzero"/><path fill="#6275b3" d="M 856.699219 205.960938 C 856.699219 212.089844 865.589844 217.058594 876.5625 217.058594 C 887.53125 217.058594 896.429688 212.089844 896.429688 205.960938 C 896.429688 199.828125 887.53125 194.859375 876.5625 194.859375 C 865.589844 194.859375 856.699219 199.828125 856.699219 205.960938 " fill-opacity="1" fill-rule="nonzero"/><path fill="#ef8641" d="M 889.847656 201.027344 C 889.824219 197.792969 888.808594 194.539062 887.289062 191.707031 C 886.871094 190.9375 886.285156 190.082031 885.566406 189.199219 C 882.433594 185.351562 876.929688 184.394531 872.65625 186.914062 C 870.523438 188.167969 868.332031 189.457031 867.140625 190.167969 L 880.515625 212.015625 L 889.847656 206.558594 L 889.847656 201.027344 " fill-opacity="1" fill-rule="nonzero"/><path fill="#ffb451" d="M 880.515625 206.488281 C 880.460938 200.410156 876.769531 193.402344 872.222656 190.777344 C 867.644531 188.132812 863.929688 190.941406 863.929688 197.050781 C 863.929688 197.144531 863.941406 197.242188 863.941406 197.339844 L 863.933594 201.433594 L 863.933594 202.53125 L 871.777344 207.058594 C 871.925781 207.15625 872.074219 207.261719 872.222656 207.351562 C 872.351562 207.421875 872.472656 207.476562 872.597656 207.542969 L 880.515625 212.015625 L 880.515625 206.488281 " fill-opacity="1" fill-rule="nonzero"/><path fill="#3b4b85" d="M 841.167969 197.601562 L 841.167969 215.171875 C 841.167969 222.882812 847.757812 228.300781 854.683594 227.8125 L 856.699219 226.859375 L 856.699219 220.644531 L 865.617188 215.300781 L 865.617188 187.058594 L 880.832031 178.210938 L 880.839844 185.988281 C 882.644531 186.570312 884.34375 187.636719 885.566406 189.199219 C 886.246094 190.027344 886.898438 190.976562 887.289062 191.707031 C 888.3125 193.515625 888.988281 195.457031 889.375 197.503906 C 892.210938 198.820312 894.402344 200.628906 895.527344 202.679688 C 898.355469 198.625 899.917969 193.746094 899.917969 188.570312 L 899.917969 171 C 899.917969 161.242188 889.375 155.140625 880.933594 160.023438 L 853.804688 175.6875 C 846 180.226562 841.167969 188.570312 841.167969 197.601562 " fill-opacity="1" fill-rule="nonzero"/><path fill="#ef8641" d="M 883.714844 187.453125 L 874.378906 181.957031 L 865.617188 187.058594 L 865.617188 191.339844 L 866.261719 190.707031 L 868.078125 189.679688 L 883.714844 187.453125 " fill-opacity="1" fill-rule="nonzero"/><path fill="#ffb451" d="M 871.816406 190.558594 L 865.617188 187.058594 L 865.617188 203.503906 Z M 871.816406 190.558594 " fill-opacity="1" fill-rule="nonzero"/><path fill="#343c6b" d="M 663.421875 264.933594 C 663.421875 259.105469 659.878906 252.332031 655.507812 249.808594 C 653.570312 248.691406 651.796875 248.558594 650.421875 249.300781 L 646.796875 251.328125 L 657.027344 273.324219 L 660.804688 271.261719 C 662.410156 270.257812 663.421875 268.046875 663.421875 264.933594 " fill-opacity="1" fill-rule="nonzero"/><path fill="#8194ec" d="M 660.027344 266.785156 C 660.027344 272.617188 656.484375 275.292969 652.113281 272.769531 C 647.742188 270.246094 644.199219 263.472656 644.199219 257.644531 C 644.199219 251.816406 647.742188 249.136719 652.113281 251.660156 C 656.484375 254.183594 660.027344 260.957031 660.027344 266.785156 " fill-opacity="1" fill-rule="nonzero"/><path fill="#ef8641" d="M 509.007812 212.683594 C 508.476562 210.3125 508.550781 208.300781 509.035156 206.664062 L 506.914062 207.1875 L 511.089844 203.550781 C 512.597656 202.433594 514.699219 202.109375 517.261719 202.90625 C 522.664062 204.585938 528.179688 210.480469 530.625 216.808594 C 530.652344 216.894531 530.691406 216.984375 530.722656 217.074219 L 571.851562 328.730469 C 572.003906 329.226562 572.191406 329.71875 572.300781 330.210938 C 573.246094 334.398438 572.402344 337.5625 570.390625 339.195312 L 567.792969 341.664062 L 567.121094 340.371094 C 566.179688 340.414062 565.171875 340.339844 564.046875 339.988281 C 558.261719 338.191406 552.386719 331.558594 550.261719 324.738281 L 510.085938 216.023438 C 509.628906 214.917969 509.261719 213.800781 509.007812 212.683594 " fill-opacity="1" fill-rule="nonzero"/><path fill="#ffd474" d="M 502.824219 216.742188 C 501.167969 209.410156 504.867188 205.035156 511.078125 206.96875 C 516.480469 208.648438 522 214.542969 524.4375 220.867188 C 524.46875 220.953125 524.507812 221.046875 524.539062 221.132812 L 565.667969 332.789062 C 565.824219 333.285156 566.003906 333.777344 566.117188 334.273438 C 567.773438 341.601562 564.078125 345.980469 557.863281 344.046875 C 552.078125 342.25 546.203125 335.617188 544.074219 328.796875 L 503.898438 220.085938 C 503.445312 218.976562 503.074219 217.863281 502.824219 216.742188 " fill-opacity="1" fill-rule="nonzero"/><path fill="#343c6b" d="M 571.742188 361.984375 C 559.933594 356.265625 544.539062 352.796875 527.6875 352.796875 C 510.832031 352.796875 495.4375 356.265625 483.632812 361.984375 L 460.378906 361.984375 L 460.378906 390.40625 C 460.378906 411.175781 490.515625 428.011719 527.6875 428.011719 C 564.859375 428.011719 594.996094 411.175781 594.996094 390.40625 L 594.996094 361.984375 L 571.742188 361.984375 " fill-opacity="1" fill-rule="nonzero"/><path fill="#445393" d="M 460.378906 361.984375 C 460.378906 382.753906 490.515625 399.589844 527.6875 399.589844 C 564.859375 399.589844 594.996094 382.753906 594.996094 361.984375 C 594.996094 341.214844 564.859375 324.378906 527.6875 324.378906 C 490.515625 324.378906 460.378906 341.214844 460.378906 361.984375 " fill-opacity="1" fill-rule="nonzero"/><path fill="#343c6b" d="M 564.78125 328.898438 C 554.839844 324.085938 541.878906 321.160156 527.6875 321.160156 C 513.496094 321.160156 500.535156 324.085938 490.59375 328.898438 L 471.011719 337.375 L 471.011719 352.828125 C 471.011719 370.316406 496.386719 384.496094 527.6875 384.496094 C 558.988281 384.496094 584.363281 370.316406 584.363281 352.828125 L 584.363281 337.375 L 564.78125 328.898438 " fill-opacity="1" fill-rule="nonzero"/><path fill="#445393" d="M 471.011719 337.375 C 471.011719 354.863281 496.386719 369.042969 527.6875 369.042969 C 558.988281 369.042969 584.363281 354.863281 584.363281 337.375 C 584.363281 319.886719 558.988281 305.707031 527.6875 305.707031 C 496.386719 305.707031 471.011719 319.886719 471.011719 337.375 " fill-opacity="1" fill-rule="nonzero"/><path fill="#ffb451" d="M 512.917969 282.136719 C 515.472656 280.582031 518.839844 280.675781 522.523438 282.804688 C 522.523438 282.804688 559.605469 304.257812 559.738281 304.339844 C 567.722656 308.949219 574.191406 321.316406 574.191406 331.960938 C 574.191406 337.882812 572.183594 342 569.03125 343.707031 L 539.539062 360.742188 L 483.417969 299.152344 L 512.917969 282.136719 " fill-opacity="1" fill-rule="nonzero"/><path fill="#ffd474" d="M 492.835938 299.933594 C 492.835938 299.933594 529.914062 321.390625 530.050781 321.46875 C 538.035156 326.078125 544.503906 338.445312 544.503906 349.089844 C 544.503906 359.40625 538.421875 364.292969 530.777344 360.390625 L 492.835938 338.484375 C 484.851562 333.875 478.382812 321.507812 478.382812 310.863281 C 478.382812 300.21875 484.851562 295.328125 492.835938 299.933594 " fill-opacity="1" fill-rule="nonzero"/><path fill="#ef8641" d="M 519.367188 178.949219 C 523.292969 176.570312 528.441406 176.703125 534.097656 179.972656 C 537.097656 181.703125 539.949219 184.152344 542.558594 187.09375 L 497.472656 212.859375 L 475.484375 204.0625 L 519.367188 178.949219 " fill-opacity="1" fill-rule="nonzero"/><path fill="#ffb451" d="M 542.558594 187.09375 L 595.21875 188.359375 L 564.183594 206.03125 L 559.679688 212.429688 L 557.441406 214.300781 L 550.222656 214.128906 L 497.472656 212.859375 L 542.558594 187.09375 " fill-opacity="1" fill-rule="nonzero"/><path fill="#ef8641" d="M 595.21875 188.359375 L 609.136719 180.332031 C 612.964844 178.449219 617.824219 178.675781 623.167969 181.761719 C 635.445312 188.851562 645.394531 207.867188 645.394531 224.242188 C 645.394531 233.203125 642.398438 239.488281 637.683594 242.203125 L 637.382812 242.394531 C 637.273438 242.457031 592.824219 267.855469 592.824219 267.855469 L 560.371094 218.738281 L 564.296875 205.976562 L 595.21875 188.359375 " fill-opacity="1" fill-rule="nonzero"/><path fill="#ffd474" d="M 489.015625 205.738281 C 492.011719 207.46875 494.867188 209.917969 497.472656 212.859375 L 557.441406 214.300781 C 560.707031 205.246094 568.710938 202.117188 578.082031 207.53125 C 590.359375 214.621094 600.308594 233.636719 600.308594 250.007812 C 600.308594 266.378906 590.359375 273.902344 578.082031 266.816406 C 575.152344 265.121094 572.359375 262.734375 569.796875 259.882812 L 509.300781 259.171875 C 505.832031 267.511719 498.0625 270.246094 489.015625 265.019531 C 476.738281 257.933594 466.789062 238.917969 466.789062 222.542969 C 466.789062 206.175781 476.738281 198.652344 489.015625 205.738281 " fill-opacity="1" fill-rule="nonzero"/><path fill="#445393" d="M 537.679688 226.855469 L 509.304688 226.175781 C 508.570312 226.160156 507.984375 225.542969 508 224.808594 C 508.015625 224.074219 508.722656 223.464844 509.371094 223.503906 L 537.722656 224.183594 C 538.460938 224.195312 539.046875 224.8125 539.03125 225.550781 C 539.015625 226.273438 538.402344 226.855469 537.679688 226.855469 " fill-opacity="1" fill-rule="nonzero"/><path fill="#445393" d="M 540.519531 234.828125 L 512.144531 234.148438 C 511.40625 234.132812 510.828125 233.515625 510.84375 232.78125 C 510.859375 232.042969 511.5625 231.601562 512.207031 231.476562 L 540.566406 232.15625 C 541.304688 232.175781 541.886719 232.789062 541.871094 233.527344 C 541.855469 234.253906 541.242188 234.828125 540.519531 234.828125 " fill-opacity="1" fill-rule="nonzero"/><path fill="#445393" d="M 543.636719 242.804688 L 515.261719 242.121094 C 514.523438 242.105469 513.945312 241.488281 513.960938 240.753906 C 513.976562 240.019531 514.679688 239.46875 515.328125 239.449219 L 543.683594 240.132812 C 544.425781 240.148438 545.003906 240.765625 544.988281 241.503906 C 544.972656 242.226562 544.363281 242.804688 543.636719 242.804688 " fill-opacity="1" fill-rule="nonzero"/><path fill="#445393" d="M 546.527344 250.78125 L 518.15625 250.097656 C 517.414062 250.082031 516.835938 249.464844 516.851562 248.730469 C 516.867188 247.996094 517.574219 247.386719 518.21875 247.429688 L 546.574219 248.109375 C 547.316406 248.125 547.894531 248.742188 547.878906 249.476562 C 547.867188 250.203125 547.253906 250.78125 546.527344 250.78125 " fill-opacity="1" fill-rule="nonzero"/><path fill="#343c6b" d="M 589.742188 248.910156 C 589.742188 236.648438 582.289062 222.398438 573.089844 217.089844 C 569.019531 214.738281 565.285156 214.460938 562.394531 216.023438 L 554.773438 220.285156 L 576.289062 266.566406 L 584.234375 262.234375 C 587.617188 260.121094 589.742188 255.460938 589.742188 248.910156 " fill-opacity="1" fill-rule="nonzero"/><path fill="#445393" d="M 582.605469 252.808594 C 582.605469 265.074219 575.148438 270.710938 565.953125 265.402344 C 556.753906 260.089844 549.300781 245.84375 549.300781 233.574219 C 549.300781 221.3125 556.753906 215.671875 565.953125 220.988281 C 575.148438 226.296875 582.605469 240.546875 582.605469 252.808594 " fill-opacity="1" fill-rule="nonzero"/><path fill="#ef8641" d="M 573.203125 248.386719 C 573.203125 242.15625 569.417969 234.917969 564.746094 232.21875 C 562.675781 231.027344 560.78125 230.886719 559.3125 231.679688 L 555.441406 233.84375 L 566.367188 257.351562 L 570.402344 255.148438 C 572.121094 254.078125 573.203125 251.714844 573.203125 248.386719 " fill-opacity="1" fill-rule="nonzero"/><path fill="#ffd474" d="M 569.578125 250.367188 C 569.578125 256.597656 565.789062 259.460938 561.121094 256.761719 C 556.445312 254.0625 552.660156 246.824219 552.660156 240.59375 C 552.660156 234.363281 556.445312 231.5 561.121094 234.199219 C 565.789062 236.898438 569.578125 244.136719 569.578125 250.367188 " fill-opacity="1" fill-rule="nonzero"/><path fill="#ffd474" d="M 613.015625 239.726562 C 612.183594 243.992188 612.984375 247.28125 614.925781 249.050781 L 673.796875 300.050781 L 696.082031 274.707031 L 634.953125 221.777344 C 633.285156 220.40625 630.808594 220.074219 627.878906 221.09375 C 621.210938 223.425781 614.570312 231.726562 613.015625 239.726562 " fill-opacity="1" fill-rule="nonzero"/><path fill="#93a1de" d="M 720.699219 334.316406 L 720.667969 378.617188 L 718.042969 382.554688 L 719.316406 381.796875 L 724.089844 376.582031 L 724.109375 332.34375 L 720.699219 334.316406 " fill-opacity="1" fill-rule="nonzero"/><path fill="#c1d1ff" d="M 716.21875 325.292969 L 712.8125 327.292969 L 720.699219 334.316406 L 724.109375 332.34375 L 716.21875 325.292969 " fill-opacity="1" fill-rule="nonzero"/><path fill="#c5d4ff" d="M 712.8125 327.292969 L 704.59375 322.5625 L 708.144531 320.382812 L 716.21875 325.292969 L 712.8125 327.292969 " fill-opacity="1" fill-rule="nonzero"/><path fill="#b8c9ff" d="M 712.417969 373.820312 L 709.910156 377.710938 L 718.042969 382.554688 L 720.667969 378.617188 L 712.417969 373.820312 " fill-opacity="1" fill-rule="nonzero"/><path fill="#97b1f4" d="M 712.8125 327.292969 L 704.59375 322.5625 L 712.480469 329.570312 L 720.699219 334.316406 L 712.8125 327.292969 " fill-opacity="1" fill-rule="nonzero"/><path fill="#d4dfff" d="M 712.480469 329.570312 L 712.417969 373.820312 L 720.667969 378.617188 L 720.699219 334.316406 L 712.480469 329.570312 " fill-opacity="1" fill-rule="nonzero"/><path fill="#c5d4ff" d="M 709 329.550781 L 700.824219 324.792969 L 704.667969 322.421875 L 712.855469 327.398438 L 709 329.550781 " fill-opacity="1" fill-rule="nonzero"/><path fill="#c1d1ff" d="M 709 329.550781 L 702.976562 344.550781 L 706.832031 342.324219 L 712.855469 327.398438 L 709 329.550781 " fill-opacity="1" fill-rule="nonzero"/><path fill="#93a1de" d="M 702.980469 383.996094 L 708.964844 387.480469 L 709.910156 386.863281 L 706.832031 382.898438 L 706.832031 342.324219 L 702.976562 344.550781 L 702.980469 383.996094 " fill-opacity="1" fill-rule="nonzero"/><path fill="#97b1f4" d="M 709 329.550781 L 700.824219 324.792969 L 694.78125 339.816406 L 702.976562 344.550781 L 709 329.550781 " fill-opacity="1" fill-rule="nonzero"/><path fill="#d4dfff" d="M 694.78125 339.816406 L 694.730469 379.195312 L 702.980469 383.996094 L 702.976562 344.550781 L 694.78125 339.816406 " fill-opacity="1" fill-rule="nonzero"/><path fill="#6275b3" d="M 726.414062 270.449219 L 680.585938 336.746094 L 663.554688 327.242188 C 659.402344 325.292969 656.351562 321.085938 656.351562 315.832031 L 656.351562 298.269531 C 656.351562 289.214844 661.152344 280.859375 668.957031 276.351562 L 696.121094 260.6875 C 700.425781 258.1875 705.226562 258.589844 708.929688 260.792969 L 726.414062 270.449219 " fill-opacity="1" fill-rule="nonzero"/><path fill="#343c6b" d="M 713.773438 316.082031 L 713.78125 288.722656 L 698.5625 297.566406 L 698.5625 324.988281 L 692.558594 328.488281 L 692.558594 335.546875 L 719.777344 320.335938 L 719.777344 312.574219 L 713.773438 316.082031 " fill-opacity="1" fill-rule="nonzero"/><path fill="#ff182b" d="M 695.128906 332.339844 C 695.128906 336.773438 701.566406 340.371094 709.507812 340.371094 C 717.449219 340.371094 723.882812 336.773438 723.882812 332.339844 C 723.882812 327.898438 717.449219 324.304688 709.507812 324.304688 C 701.566406 324.304688 695.128906 327.898438 695.128906 332.339844 " fill-opacity="1" fill-rule="nonzero"/><path fill="#343c6b" d="M 722.507812 313.496094 C 719.027344 311.808594 714.480469 310.78125 709.507812 310.78125 C 704.535156 310.78125 699.988281 311.808594 696.503906 313.496094 L 689.640625 316.46875 L 689.640625 340.421875 C 689.640625 346.554688 698.535156 351.523438 709.507812 351.523438 C 720.476562 351.523438 729.371094 346.554688 729.371094 340.421875 L 729.371094 316.46875 L 722.507812 313.496094 " fill-opacity="1" fill-rule="nonzero"/><path fill="#6275b3" d="M 689.640625 316.46875 C 689.640625 322.597656 698.535156 327.5625 709.507812 327.5625 C 720.476562 327.5625 729.371094 322.597656 729.371094 316.46875 C 729.371094 310.335938 720.476562 305.367188 709.507812 305.367188 C 698.535156 305.367188 689.640625 310.335938 689.640625 316.46875 " fill-opacity="1" fill-rule="nonzero"/><path fill="#ef8641" d="M 722.792969 311.535156 C 722.765625 308.300781 721.757812 305.046875 720.230469 302.214844 C 719.820312 301.445312 719.230469 300.589844 718.507812 299.707031 C 715.378906 295.859375 709.875 294.902344 705.601562 297.417969 C 703.464844 298.675781 701.28125 299.964844 700.085938 300.671875 L 713.460938 322.523438 L 722.792969 317.066406 L 722.792969 311.535156 " fill-opacity="1" fill-rule="nonzero"/><path fill="#ffb451" d="M 713.460938 316.992188 C 713.410156 310.914062 709.714844 303.910156 705.167969 301.285156 C 700.589844 298.640625 696.875 301.449219 696.875 307.554688 C 696.875 307.652344 696.882812 307.75 696.886719 307.847656 L 696.878906 311.941406 L 696.878906 313.039062 L 704.722656 317.566406 C 704.871094 317.664062 705.019531 317.769531 705.167969 317.859375 C 705.292969 317.929688 705.417969 317.984375 705.546875 318.050781 L 713.460938 322.523438 L 713.460938 316.992188 " fill-opacity="1" fill-rule="nonzero"/><path fill="#3b4b85" d="M 674.113281 308.109375 L 674.113281 325.679688 C 674.113281 333.390625 680.699219 338.808594 687.632812 338.320312 L 689.640625 337.371094 L 689.640625 331.152344 L 698.558594 325.808594 L 698.5625 297.566406 L 713.78125 288.722656 L 713.785156 296.492188 C 715.589844 297.078125 717.289062 298.144531 718.507812 299.707031 C 719.195312 300.535156 719.839844 301.480469 720.230469 302.214844 C 721.253906 304.019531 721.933594 305.960938 722.324219 308.011719 C 725.152344 309.332031 727.351562 311.136719 728.472656 313.183594 C 731.304688 309.132812 732.863281 304.253906 732.863281 299.078125 L 732.863281 281.511719 C 732.863281 271.75 722.324219 265.644531 713.882812 270.527344 L 686.753906 286.195312 C 678.945312 290.734375 674.113281 299.078125 674.113281 308.109375 " fill-opacity="1" fill-rule="nonzero"/><path fill="#ef8641" d="M 716.660156 297.957031 L 707.324219 292.460938 L 698.5625 297.566406 L 698.5625 301.847656 L 699.207031 301.214844 L 701.023438 300.1875 L 716.660156 297.957031 " fill-opacity="1" fill-rule="nonzero"/><path fill="#ffb451" d="M 704.761719 301.0625 L 698.5625 297.566406 L 698.5625 314.011719 Z M 704.761719 301.0625 " fill-opacity="1" fill-rule="nonzero"/><path fill="#ef8641" d="M 474.886719 224.988281 C 474.351562 222.621094 474.425781 220.609375 474.914062 218.96875 L 472.792969 219.492188 L 476.96875 215.859375 C 478.476562 214.742188 480.574219 214.417969 483.140625 215.214844 C 488.542969 216.894531 494.058594 222.789062 496.5 229.113281 C 496.53125 229.199219 496.570312 229.292969 496.601562 229.378906 L 537.730469 341.039062 C 537.882812 341.535156 538.066406 342.027344 538.179688 342.519531 C 539.125 346.707031 538.28125 349.871094 536.269531 351.503906 L 533.671875 353.972656 L 533 352.675781 C 532.054688 352.722656 531.050781 352.644531 529.921875 352.292969 C 524.140625 350.496094 518.265625 343.863281 516.136719 337.042969 L 475.960938 228.332031 C 475.507812 227.226562 475.140625 226.109375 474.886719 224.988281 " fill-opacity="1" fill-rule="nonzero"/><path fill="#ffb451" d="M 523.75 356.328125 C 517.953125 354.578125 512.097656 347.90625 509.964844 341.125 L 506.25 331.007812 L 503.789062 324.335938 L 469.78125 232.398438 C 469.339844 231.304688 468.957031 230.15625 468.683594 229.0625 C 467.046875 221.734375 470.761719 217.359375 476.945312 219.269531 C 482.355469 220.96875 487.878906 226.875 490.339844 233.164062 C 490.339844 233.273438 490.394531 233.328125 490.394531 233.4375 L 530.910156 343.421875 L 531.566406 345.117188 C 531.675781 345.609375 531.894531 346.101562 532.003906 346.59375 C 532.167969 347.359375 532.277344 348.070312 532.332031 348.78125 C 532.878906 354.742188 529.328125 358.082031 523.75 356.328125 " fill-opacity="1" fill-rule="nonzero"/><path fill="#343c6b" d="M 503.433594 245.667969 C 503.433594 233.40625 495.980469 219.15625 486.785156 213.847656 C 482.714844 211.496094 478.984375 211.21875 476.089844 212.78125 L 468.46875 217.042969 L 489.980469 263.324219 L 497.929688 258.988281 C 501.3125 256.878906 503.433594 252.222656 503.433594 245.667969 " fill-opacity="1" fill-rule="nonzero"/><path fill="#445393" d="M 496.300781 249.566406 C 496.300781 261.832031 488.84375 267.46875 479.644531 262.160156 C 470.453125 256.847656 462.996094 242.597656 462.996094 230.332031 C 462.996094 218.070312 470.453125 212.433594 479.644531 217.746094 C 488.84375 223.054688 496.300781 237.304688 496.300781 249.566406 " fill-opacity="1" fill-rule="nonzero"/><path fill="#ef8641" d="M 486.894531 245.144531 C 486.894531 238.914062 483.109375 231.675781 478.4375 228.976562 C 476.371094 227.785156 474.476562 227.644531 473.007812 228.4375 L 469.132812 230.601562 L 480.0625 254.109375 L 484.097656 251.910156 C 485.820312 250.835938 486.894531 248.472656 486.894531 245.144531 " fill-opacity="1" fill-rule="nonzero"/><path fill="#ffd474" d="M 483.269531 247.121094 C 483.269531 253.355469 479.484375 256.21875 474.8125 253.519531 C 470.140625 250.820312 466.355469 243.582031 466.355469 237.355469 C 466.355469 231.125 470.140625 228.257812 474.8125 230.960938 C 479.484375 233.65625 483.269531 240.890625 483.269531 247.121094 " fill-opacity="1" fill-rule="nonzero"/><path fill="#343c6b" d="M 538.847656 348.621094 C 538.847656 339.792969 533.480469 329.535156 526.859375 325.707031 C 523.925781 324.015625 521.242188 323.816406 519.15625 324.941406 L 513.667969 328.007812 L 529.164062 361.335938 L 534.882812 358.214844 C 537.320312 356.695312 538.847656 353.335938 538.847656 348.621094 " fill-opacity="1" fill-rule="nonzero"/><path fill="#445393" d="M 533.710938 351.429688 C 533.710938 360.261719 528.34375 364.320312 521.71875 360.496094 C 515.097656 356.671875 509.726562 346.410156 509.726562 337.582031 C 509.726562 328.75 515.097656 324.691406 521.71875 328.515625 C 528.34375 332.339844 533.710938 342.597656 533.710938 351.429688 " fill-opacity="1" fill-rule="nonzero"/><path fill="#ef8641" d="M 527.417969 349.824219 C 527.417969 343.996094 523.875 337.222656 519.503906 334.699219 C 517.570312 333.582031 515.796875 333.449219 514.421875 334.191406 L 510.800781 336.21875 L 521.023438 358.214844 L 524.804688 356.15625 C 526.410156 355.152344 527.417969 352.9375 527.417969 349.824219 " fill-opacity="1" fill-rule="nonzero"/><path fill="#ffd474" d="M 524.027344 351.675781 C 524.027344 357.503906 520.484375 360.1875 516.113281 357.660156 C 511.742188 355.136719 508.199219 348.363281 508.199219 342.535156 C 508.199219 336.707031 511.742188 334.027344 516.113281 336.550781 C 520.484375 339.074219 524.027344 345.847656 524.027344 351.675781 " fill-opacity="1" fill-rule="nonzero"/><g clip-path="url(#b1fd82fb16)"><path fill="#93a1de" d="M 741.949219 715.691406 L 729.898438 708.734375 C 729.085938 708.265625 728.085938 708.265625 727.277344 708.734375 L 715.226562 715.691406 L 711.617188 713.09375 L 711.617188 718.535156 C 711.617188 718.976562 711.839844 719.417969 712.273438 719.671875 L 727.277344 728.335938 C 728.085938 728.800781 729.085938 728.800781 729.898438 728.335938 L 744.902344 719.671875 C 745.339844 719.417969 745.558594 718.976562 745.558594 718.535156 L 745.558594 713.09375 L 741.949219 715.691406 " fill-opacity="1" fill-rule="nonzero"/></g><path fill="#d4dfff" d="M 712.273438 711.957031 L 727.277344 703.292969 C 728.085938 702.824219 729.085938 702.824219 729.898438 703.292969 L 744.902344 711.957031 C 745.777344 712.460938 745.777344 713.722656 744.902344 714.230469 L 729.898438 722.890625 C 729.085938 723.359375 728.085938 723.359375 727.277344 722.890625 L 712.273438 714.230469 C 711.398438 713.722656 711.398438 712.460938 712.273438 711.957031 " fill-opacity="1" fill-rule="nonzero"/><path fill="#445393" d="M 720.617188 579.652344 L 720.617188 711.886719 C 720.617188 712.09375 720.71875 712.300781 720.925781 712.421875 L 727.972656 716.488281 C 728.351562 716.707031 728.824219 716.707031 729.203125 716.488281 L 736.25 712.421875 C 736.457031 712.300781 736.558594 712.09375 736.558594 711.886719 L 736.558594 579.652344 L 720.617188 579.652344 " fill-opacity="1" fill-rule="nonzero"/><path fill="#93a1de" d="M 945.996094 599.363281 L 933.949219 592.40625 C 933.136719 591.9375 932.136719 591.9375 931.324219 592.40625 L 919.277344 599.363281 L 915.667969 596.761719 L 915.667969 602.203125 C 915.667969 602.648438 915.886719 603.089844 916.324219 603.339844 L 931.324219 612.003906 C 932.136719 612.476562 933.136719 612.476562 933.949219 612.003906 L 948.949219 603.339844 C 949.390625 603.089844 949.605469 602.648438 949.605469 602.203125 L 949.605469 596.761719 L 945.996094 599.363281 " fill-opacity="1" fill-rule="nonzero"/><path fill="#d4dfff" d="M 916.324219 595.625 L 931.324219 586.960938 C 932.136719 586.496094 933.136719 586.496094 933.949219 586.960938 L 948.949219 595.625 C 949.828125 596.132812 949.828125 597.394531 948.949219 597.898438 L 933.949219 606.5625 C 933.136719 607.03125 932.136719 607.03125 931.324219 606.5625 L 916.324219 597.898438 C 915.449219 597.394531 915.449219 596.132812 916.324219 595.625 " fill-opacity="1" fill-rule="nonzero"/><path fill="#445393" d="M 924.664062 456.886719 L 924.664062 595.558594 C 924.664062 595.765625 924.769531 595.972656 924.976562 596.089844 L 932.019531 600.15625 C 932.402344 600.378906 932.871094 600.378906 933.253906 600.15625 L 940.296875 596.089844 C 940.503906 595.972656 940.609375 595.765625 940.609375 595.558594 L 940.609375 456.886719 L 924.664062 456.886719 " fill-opacity="1" fill-rule="nonzero"/><path fill="#93a1de" d="M 609.972656 639.113281 L 597.921875 632.160156 C 597.109375 631.691406 596.109375 631.691406 595.296875 632.160156 L 583.25 639.113281 L 579.640625 636.515625 L 579.640625 641.960938 C 579.640625 642.398438 579.859375 642.84375 580.296875 643.097656 L 595.296875 651.757812 C 596.109375 652.226562 597.109375 652.226562 597.921875 651.757812 L 612.925781 643.097656 C 613.359375 642.84375 613.582031 642.398438 613.582031 641.960938 L 613.582031 636.515625 L 609.972656 639.113281 " fill-opacity="1" fill-rule="nonzero"/><path fill="#d4dfff" d="M 580.296875 635.378906 L 595.296875 626.71875 C 596.109375 626.246094 597.109375 626.246094 597.921875 626.71875 L 612.925781 635.378906 C 613.796875 635.886719 613.796875 637.148438 612.925781 637.652344 L 597.921875 646.316406 C 597.109375 646.785156 596.109375 646.785156 595.296875 646.316406 L 580.296875 637.652344 C 579.421875 637.148438 579.421875 635.886719 580.296875 635.378906 " fill-opacity="1" fill-rule="nonzero"/><path fill="#445393" d="M 588.640625 503.078125 L 588.640625 635.308594 C 588.640625 635.515625 588.742188 635.722656 588.949219 635.84375 L 595.996094 639.914062 C 596.375 640.132812 596.847656 640.132812 597.226562 639.914062 L 604.273438 635.84375 C 604.476562 635.722656 604.578125 635.515625 604.582031 635.308594 L 604.582031 503.078125 L 588.640625 503.078125 " fill-opacity="1" fill-rule="nonzero"/><path fill="#93a1de" d="M 784.347656 542.105469 L 772.296875 535.148438 C 771.488281 534.675781 770.488281 534.675781 769.675781 535.148438 L 757.628906 542.105469 L 754.019531 539.503906 L 754.019531 544.945312 C 754.019531 545.386719 754.238281 545.828125 754.675781 546.082031 L 769.675781 554.746094 C 770.488281 555.214844 771.488281 555.214844 772.296875 554.746094 L 787.300781 546.082031 C 787.738281 545.828125 787.957031 545.386719 787.957031 544.945312 L 787.957031 539.503906 L 784.347656 542.105469 " fill-opacity="1" fill-rule="nonzero"/><path fill="#d4dfff" d="M 754.675781 538.367188 L 769.675781 529.703125 C 770.488281 529.234375 771.488281 529.234375 772.296875 529.703125 L 787.300781 538.367188 C 788.175781 538.871094 788.175781 540.136719 787.300781 540.640625 L 772.296875 549.300781 C 771.488281 549.769531 770.488281 549.769531 769.675781 549.300781 L 754.675781 540.640625 C 753.796875 540.136719 753.796875 538.871094 754.675781 538.367188 " fill-opacity="1" fill-rule="nonzero"/><path fill="#93a1de" d="M 763.015625 406.0625 L 763.015625 538.296875 C 763.015625 538.503906 763.121094 538.710938 763.328125 538.832031 L 770.371094 542.898438 C 770.753906 543.121094 771.222656 543.121094 771.605469 542.898438 L 778.648438 538.832031 C 778.855469 538.710938 778.960938 538.503906 778.960938 538.296875 L 778.960938 406.0625 L 763.015625 406.0625 " fill-opacity="1" fill-rule="nonzero"/><path fill="#b8c9ff" d="M 818.78125 346.832031 L 966.933594 430.859375 L 710.171875 580.707031 L 563.1875 494.328125 L 818.78125 346.832031 " fill-opacity="1" fill-rule="nonzero"/><path fill="#93a1de" d="M 966.933594 430.859375 L 966.933594 445.832031 L 710.171875 595.683594 L 710.171875 580.707031 L 966.933594 430.859375 " fill-opacity="1" fill-rule="nonzero"/><path fill="#d4dfff" d="M 563.1875 494.328125 L 563.1875 509.277344 L 710.171875 595.683594 L 710.171875 580.707031 L 563.1875 494.328125 " fill-opacity="1" fill-rule="nonzero"/><path fill="#ef8641" d="M 898.902344 389.558594 L 898.902344 426.152344 L 813.414062 475.527344 L 813.402344 438.886719 L 898.902344 389.558594 " fill-opacity="1" fill-rule="nonzero"/><path fill="#ffd474" d="M 813.402344 438.886719 L 813.414062 475.527344 L 727.957031 426.152344 L 727.960938 389.558594 L 813.402344 438.886719 " fill-opacity="1" fill-rule="nonzero"/><path fill="#ffe9b8" d="M 813.382812 339.609375 L 727.960938 389.558594 L 813.402344 438.886719 L 898.902344 389.558594 L 813.382812 339.609375 " fill-opacity="1" fill-rule="nonzero"/><path fill="#ef8641" d="M 854.652344 412 L 813.382812 387.894531 L 772.152344 412 L 813.375 435.800781 L 854.652344 412 " fill-opacity="1" fill-rule="nonzero"/><path fill="#ffd474" d="M 893.570312 389.5625 L 813.402344 342.734375 L 813.382812 387.894531 L 854.652344 412 L 893.570312 389.5625 " fill-opacity="1" fill-rule="nonzero"/><path fill="#ffb451" d="M 813.402344 342.734375 L 733.289062 389.5625 L 772.152344 412 L 813.382812 387.894531 L 813.402344 342.734375 " fill-opacity="1" fill-rule="nonzero"/><path fill="#ef8641" d="M 788.9375 453.253906 L 788.9375 489.847656 L 703.449219 539.226562 L 703.441406 502.582031 L 788.9375 453.253906 " fill-opacity="1" fill-rule="nonzero"/><path fill="#ffd474" d="M 703.441406 502.582031 L 703.449219 539.226562 L 617.996094 489.847656 L 617.996094 453.253906 L 703.441406 502.582031 " fill-opacity="1" fill-rule="nonzero"/><path fill="#ffe9b8" d="M 703.417969 403.308594 L 617.996094 453.253906 L 703.441406 502.582031 L 788.9375 453.253906 L 703.417969 403.308594 " fill-opacity="1" fill-rule="nonzero"/><path fill="#ef8641" d="M 744.6875 475.699219 L 703.421875 451.59375 L 662.191406 475.699219 L 703.414062 499.5 L 744.6875 475.699219 " fill-opacity="1" fill-rule="nonzero"/><path fill="#ffd474" d="M 783.609375 453.257812 L 703.441406 406.429688 L 703.421875 451.59375 L 744.6875 475.699219 L 783.609375 453.257812 " fill-opacity="1" fill-rule="nonzero"/><path fill="#ffb451" d="M 703.441406 406.429688 L 623.324219 453.257812 L 662.191406 475.699219 L 703.421875 451.59375 L 703.441406 406.429688 " fill-opacity="1" fill-rule="nonzero"/></svg>