<svg xmlns="http://www.w3.org/2000/svg" xmlns:xlink="http://www.w3.org/1999/xlink" width="1920" zoomAndPan="magnify" viewBox="0 0 1440 809.999993" height="1080" preserveAspectRatio="xMidYMid meet" version="1.0"><defs><clipPath id="50abc52b83"><path d="M 531.726562 414.753906 L 1112.199219 414.753906 L 1112.199219 728.984375 L 531.726562 728.984375 Z M 531.726562 414.753906 " clip-rule="nonzero"/></clipPath><clipPath id="d96d65240e"><path d="M 375.796875 288 L 794 288 L 794 529 L 375.796875 529 Z M 375.796875 288 " clip-rule="nonzero"/></clipPath><clipPath id="d2018a64fa"><path d="M 375.796875 380 L 631 380 L 631 567 L 375.796875 567 Z M 375.796875 380 " clip-rule="nonzero"/></clipPath></defs><path fill="#ef8641" d="M 773.671875 506.6875 L 775.089844 502.777344 C 752.480469 494.570312 737.5625 475.414062 736.167969 452.777344 C 735.527344 442.503906 739.039062 433.742188 742.761719 424.472656 C 746.105469 416.128906 749.566406 407.503906 749.605469 397.835938 C 749.675781 381.339844 738.847656 369.648438 728.378906 358.351562 C 726.460938 356.285156 724.566406 354.242188 722.769531 352.195312 C 715.015625 343.347656 707.980469 333.636719 709.019531 322.550781 C 709.734375 314.9375 713.558594 308.648438 719.800781 304.847656 C 726.765625 300.609375 735.753906 300.023438 743.84375 303.269531 C 746.382812 304.308594 749.109375 303.113281 750.160156 300.503906 C 751.175781 297.988281 750.074219 295.332031 747.59375 294.335938 L 746.046875 298.1875 C 746.226562 298.261719 746.535156 298.386719 746.304688 298.953125 C 746.175781 299.277344 745.90625 299.644531 745.390625 299.417969 C 736.089844 295.675781 725.71875 296.378906 717.636719 301.296875 C 710.25 305.800781 705.722656 313.214844 704.882812 322.15625 C 703.691406 334.847656 711.679688 345.847656 719.648438 354.933594 C 721.46875 357.011719 723.386719 359.082031 725.328125 361.175781 C 735.25 371.886719 745.515625 382.960938 745.453125 397.816406 C 745.410156 406.695312 742.253906 414.578125 738.902344 422.925781 C 735.175781 432.214844 731.324219 441.828125 732.015625 453.03125 C 733.519531 477.347656 749.480469 497.90625 773.671875 506.6875 " fill-opacity="1" fill-rule="nonzero"/><path fill="#343c6b" d="M 808.167969 521.371094 L 810.542969 517.960938 C 757 480.679688 714.300781 429.644531 687.046875 370.375 L 686.695312 369.609375 C 675.175781 344.550781 684.371094 315.023438 708.085938 300.933594 C 720.972656 293.28125 735.996094 291.34375 750.402344 295.464844 C 764.804688 299.597656 776.519531 309.210938 783.378906 322.539062 L 788.050781 331.609375 L 791.746094 329.707031 L 787.074219 320.632812 C 779.683594 306.28125 767.066406 295.925781 751.550781 291.472656 C 736.023438 287.019531 719.839844 289.121094 705.964844 297.359375 C 680.417969 312.539062 670.507812 344.351562 682.917969 371.347656 L 683.269531 372.109375 C 710.835938 432.050781 754.023438 483.671875 808.167969 521.371094 " fill-opacity="1" fill-rule="nonzero"/><g clip-path="url(#50abc52b83)"><path fill="#eaf0ff" d="M 791.765625 728.984375 L 675.421875 728.511719 L 539.347656 636.855469 C 529.234375 630.980469 529.234375 616.5 539.28125 610.628906 L 750.277344 492.28125 C 756.699219 498.453125 764.609375 503.398438 773.671875 506.6875 L 775.089844 502.777344 C 767.019531 499.847656 759.929688 495.523438 754.082031 490.144531 L 763.554688 484.832031 C 777.410156 498.105469 792.324219 510.335938 808.167969 521.371094 L 810.542969 517.960938 C 795.222656 507.292969 780.785156 495.496094 767.347656 482.703125 L 888.488281 414.753906 L 1112.195312 544.0625 L 791.765625 728.984375 " fill-opacity="1" fill-rule="nonzero"/></g><path fill="#db7e41" d="M 773.671875 506.6875 C 764.609375 503.398438 756.699219 498.453125 750.277344 492.28125 L 754.082031 490.144531 C 759.929688 495.523438 767.019531 499.847656 775.089844 502.777344 L 773.671875 506.6875 " fill-opacity="1" fill-rule="nonzero"/><path fill="#30386b" d="M 808.167969 521.371094 C 792.324219 510.335938 777.410156 498.105469 763.554688 484.832031 L 767.347656 482.703125 C 780.785156 495.496094 795.222656 507.292969 810.542969 517.960938 L 808.167969 521.371094 " fill-opacity="1" fill-rule="nonzero"/><g clip-path="url(#d96d65240e)"><path fill="#b8c9ff" d="M 540.101562 288.019531 L 375.941406 380.039062 L 630.660156 528.632812 L 793.660156 434.28125 L 540.101562 288.019531 " fill-opacity="1" fill-rule="nonzero"/></g><g clip-path="url(#d2018a64fa)"><path fill="#d4dfff" d="M 375.941406 380.039062 L 375.941406 417.917969 L 630.660156 566.519531 L 630.660156 528.632812 L 375.941406 380.039062 " fill-opacity="1" fill-rule="nonzero"/></g><path fill="#d4dfff" d="M 793.660156 434.28125 L 793.660156 472.136719 L 630.660156 566.519531 L 630.660156 528.632812 L 793.660156 434.28125 " fill-opacity="1" fill-rule="nonzero"/><path fill="#ef8641" d="M 621.042969 220.492188 C 621.042969 220.492188 618.8125 219.441406 617.125 218.792969 C 611.953125 216.816406 606.121094 217.625 601.671875 220.925781 L 606.492188 221.410156 C 604.617188 222.640625 602.972656 224.261719 601.785156 226.332031 C 593.316406 241.144531 606.136719 285.578125 606.136719 285.578125 L 615.332031 280.507812 C 618.140625 278.960938 620.457031 276.652344 622.011719 273.855469 L 631.855469 256.15625 C 639.195312 243.371094 633.867188 227.90625 621.042969 220.492188 " fill-opacity="1" fill-rule="nonzero"/><path fill="#ffd474" d="M 567.738281 269.984375 C 567.738281 269.984375 583.46875 242.800781 591.9375 227.992188 C 595.792969 221.242188 604.230469 218.695312 611.195312 222.152344 C 624.398438 228.707031 629.347656 245.03125 622.003906 257.816406 L 602.519531 291.738281 L 567.738281 269.984375 " fill-opacity="1" fill-rule="nonzero"/><path fill="#c5d4ff" d="M 714.703125 289.582031 L 705.867188 284.441406 L 709.625 282.136719 L 718.417969 287.25 L 714.703125 289.582031 " fill-opacity="1" fill-rule="nonzero"/><path fill="#343c6b" d="M 765.730469 211.773438 C 766.25 198.46875 758.15625 183.332031 747.652344 177.960938 C 742.707031 175.425781 738.144531 175.59375 734.609375 177.789062 L 722.664062 184.550781 C 722.664062 184.550781 727.847656 188.683594 727.707031 192.316406 C 727.191406 205.617188 744.980469 234.371094 744.980469 234.371094 L 759.117188 226.21875 C 762.949219 223.703125 765.464844 218.664062 765.730469 211.773438 " fill-opacity="1" fill-rule="nonzero"/><path fill="#6275b3" d="M 752.832031 219.113281 C 752.359375 232.519531 743.445312 238.980469 732.882812 233.476562 C 722.425781 228.019531 714.289062 212.964844 714.808594 199.660156 C 715.324219 186.359375 724.257812 179.933594 734.753906 185.304688 C 745.253906 190.675781 753.300781 205.8125 752.832031 219.113281 " fill-opacity="1" fill-rule="nonzero"/><path fill="#343c6b" d="M 714.160156 270.050781 C 713.941406 269.945312 713.660156 269.882812 713.351562 269.882812 C 713.039062 269.882812 712.757812 269.945312 712.539062 270.050781 L 708.507812 270.234375 L 712.113281 312.277344 C 712.113281 312.65625 712.664062 312.964844 713.351562 312.964844 C 714.035156 312.964844 714.585938 312.65625 714.585938 312.277344 L 718.191406 270.234375 L 714.160156 270.050781 " fill-opacity="1" fill-rule="nonzero"/><path fill="#343c6b" d="M 730.882812 280.078125 C 730.660156 279.976562 730.378906 279.914062 730.070312 279.914062 C 729.761719 279.914062 729.480469 279.976562 729.261719 280.078125 L 725.230469 280.265625 L 728.832031 322.300781 C 728.832031 322.683594 729.386719 322.996094 730.070312 322.996094 C 730.753906 322.996094 731.308594 322.683594 731.308594 322.300781 L 734.914062 280.265625 L 730.882812 280.078125 " fill-opacity="1" fill-rule="nonzero"/><path fill="#6275b3" d="M 733.503906 254.835938 C 730.183594 253.226562 725.847656 252.25 721.105469 252.25 C 716.359375 252.25 712.027344 253.226562 708.707031 254.835938 L 702.160156 257.667969 L 702.160156 280.503906 C 702.160156 286.34375 710.644531 291.085938 721.105469 291.085938 C 731.566406 291.085938 740.046875 286.34375 740.046875 280.503906 L 740.046875 257.667969 L 733.503906 254.835938 " fill-opacity="1" fill-rule="nonzero"/><path fill="#ff182b" d="M 702.160156 257.667969 C 702.160156 263.511719 710.644531 268.246094 721.105469 268.246094 C 731.566406 268.246094 740.046875 263.511719 740.046875 257.667969 C 740.046875 251.824219 731.566406 247.085938 721.105469 247.085938 C 710.644531 247.085938 702.160156 251.824219 702.160156 257.667969 " fill-opacity="1" fill-rule="nonzero"/><path fill="#343c6b" d="M 735.71875 231.277344 C 731.804688 229.382812 726.695312 228.230469 721.105469 228.230469 C 715.515625 228.230469 710.40625 229.382812 706.488281 231.277344 L 698.773438 234.617188 L 698.773438 261.53125 C 698.773438 268.421875 708.773438 274.003906 721.105469 274.003906 C 733.4375 274.003906 743.433594 268.421875 743.433594 261.53125 L 743.433594 234.617188 L 735.71875 231.277344 " fill-opacity="1" fill-rule="nonzero"/><path fill="#445393" d="M 698.773438 234.617188 C 698.773438 241.503906 708.773438 247.085938 721.105469 247.085938 C 733.4375 247.085938 743.433594 241.503906 743.433594 234.617188 C 743.433594 227.730469 733.4375 222.144531 721.105469 222.144531 C 708.773438 222.144531 698.773438 227.730469 698.773438 234.617188 " fill-opacity="1" fill-rule="nonzero"/><path fill="#ffb451" d="M 620.140625 126.050781 L 544.855469 83 C 541.335938 81.011719 536.855469 81.015625 532.042969 83.480469 C 521.421875 88.910156 513.242188 104.21875 513.761719 117.667969 C 514.054688 125.179688 517.007812 130.523438 521.40625 132.828125 L 597.640625 176.539062 L 620.140625 126.050781 " fill-opacity="1" fill-rule="nonzero"/><path fill="#343c6b" d="M 504.613281 116.46875 L 528.21875 102.976562 C 529.824219 102.074219 531.867188 102.074219 534.066406 103.195312 C 538.917969 105.675781 542.652344 112.667969 542.414062 118.808594 C 542.28125 122.238281 540.933594 124.679688 538.925781 125.730469 L 514.886719 139.523438 L 504.613281 116.46875 " fill-opacity="1" fill-rule="nonzero"/><path fill="#ffd474" d="M 627.976562 141.324219 C 627.453125 127.875 618.425781 121.375 607.808594 126.808594 C 597.191406 132.238281 589.007812 147.546875 589.53125 160.992188 C 590.058594 174.441406 599.085938 180.941406 609.699219 175.507812 C 620.316406 170.074219 628.5 154.769531 627.976562 141.324219 " fill-opacity="1" fill-rule="nonzero"/><path fill="#343c6b" d="M 440.375 352.730469 L 440.375 370.851562 C 440.375 402.980469 487.015625 429.027344 544.542969 429.027344 C 602.078125 429.027344 648.714844 402.980469 648.714844 370.851562 L 648.714844 352.730469 L 440.375 352.730469 " fill-opacity="1" fill-rule="nonzero"/><path fill="#445393" d="M 440.375 352.730469 C 440.375 384.859375 487.015625 410.910156 544.542969 410.910156 C 602.078125 410.910156 648.714844 384.859375 648.714844 352.730469 C 648.714844 320.597656 602.078125 294.550781 544.542969 294.550781 C 487.015625 294.550781 440.375 320.597656 440.375 352.730469 " fill-opacity="1" fill-rule="nonzero"/><path fill="#343c6b" d="M 451.917969 327.863281 L 451.917969 348.28125 C 451.917969 376.851562 493.390625 400.015625 544.542969 400.015625 C 595.703125 400.015625 637.175781 376.851562 637.175781 348.28125 L 637.175781 327.863281 L 451.917969 327.863281 " fill-opacity="1" fill-rule="nonzero"/><path fill="#445393" d="M 451.917969 327.863281 C 451.917969 356.433594 493.390625 379.589844 544.542969 379.589844 C 595.703125 379.589844 637.175781 356.433594 637.175781 327.863281 C 637.175781 299.292969 595.703125 276.128906 544.542969 276.128906 C 493.390625 276.128906 451.917969 299.292969 451.917969 327.863281 " fill-opacity="1" fill-rule="nonzero"/><path fill="#ffd474" d="M 615.722656 280.152344 L 557.855469 312.058594 C 554.214844 314.136719 549.726562 314.109375 546.109375 312.019531 L 473.324219 269.726562 C 471.429688 268.632812 470.492188 266.726562 470.425781 264.816406 L 470.402344 313.691406 C 470.402344 315.371094 470.953125 317.058594 472.144531 318.242188 C 472.496094 318.59375 472.894531 318.90625 473.332031 319.160156 L 546.105469 361.472656 C 549.71875 363.5625 554.203125 363.578125 557.839844 361.5 L 615.730469 329.601562 C 617.710938 328.46875 618.699219 326.472656 618.695312 324.476562 L 618.660156 275.496094 C 618.523438 277.339844 617.546875 279.113281 615.722656 280.152344 " fill-opacity="1" fill-rule="nonzero"/><path fill="#445393" d="M 507.113281 289.347656 L 498.582031 284.417969 C 497.636719 283.035156 496.695312 281.59375 495.808594 280.152344 C 490.652344 272.007812 486.054688 263.421875 482.121094 254.554688 C 476.527344 242.257812 472.148438 229.296875 469.101562 215.890625 C 467.546875 209.074219 466.664062 201.816406 466.332031 194.175781 C 465.554688 176.277344 469.488281 159.382812 477.132812 144.648438 C 479.074219 140.933594 481.179688 137.390625 483.5625 134.007812 C 488.273438 127.140625 493.8125 120.9375 500.128906 115.617188 C 501.128906 116.558594 502.011719 117.558594 502.898438 118.667969 C 496.695312 123.929688 491.152344 130.078125 486.554688 136.890625 C 483.949219 140.714844 481.570312 144.8125 479.574219 149.023438 C 473.089844 162.539062 469.765625 177.886719 470.429688 194.007812 C 470.761719 201.375 471.652344 208.464844 473.148438 214.949219 C 476.136719 228.023438 480.40625 240.539062 485.777344 252.507812 C 489.546875 261.09375 493.925781 269.351562 498.855469 277.273438 C 501.460938 281.425781 504.171875 285.414062 507.113281 289.347656 " fill-opacity="1" fill-rule="nonzero"/><path fill="#ffb451" d="M 618.660156 275.496094 C 618.496094 277.324219 617.546875 279.101562 615.722656 280.152344 L 557.855469 312.058594 C 554.195312 314.105469 549.714844 314.121094 546.109375 312.019531 L 507.113281 289.347656 L 498.582031 284.417969 L 473.324219 269.726562 C 471.4375 268.621094 470.480469 266.753906 470.425781 264.816406 C 470.371094 262.765625 471.320312 260.707031 473.3125 259.542969 L 482.121094 254.554688 L 485.777344 252.507812 L 529.882812 227.636719 C 533.539062 225.53125 538.03125 225.53125 541.6875 227.578125 L 615.714844 269.90625 C 617.875 271.121094 618.828125 273.335938 618.660156 275.496094 " fill-opacity="1" fill-rule="nonzero"/><path fill="#ef8641" d="M 618.992188 260.699219 C 619.34375 251.617188 615.816406 241.722656 610.265625 234.414062 L 529.078125 111.269531 C 525.734375 105.492188 521.199219 100.699219 516.125 98.101562 C 510.878906 95.414062 506.019531 95.59375 502.316406 98.015625 L 480.429688 110.347656 L 495.445312 115.980469 C 495.859375 124.246094 499.214844 132.863281 504.203125 139.398438 L 585.757812 263.167969 C 588.105469 267.054688 591.015625 270.417969 594.246094 272.957031 L 588.148438 289.246094 L 610.664062 276.511719 C 615.445312 274.289062 618.683594 268.691406 618.992188 260.699219 " fill-opacity="1" fill-rule="nonzero"/><path fill="#ffd474" d="M 596.488281 273.449219 C 595.933594 287.242188 586.679688 293.890625 575.761719 288.351562 C 570.886719 285.859375 566.566406 281.316406 563.238281 275.886719 L 481.679688 152.128906 C 480.90625 151.128906 480.183594 150.132812 479.574219 149.023438 C 478.628906 147.640625 477.855469 146.199219 477.132812 144.648438 C 474.253906 138.71875 472.648438 132.019531 472.925781 125.757812 C 473.421875 111.90625 482.730469 105.257812 493.59375 110.796875 C 495.917969 111.960938 498.136719 113.625 500.128906 115.617188 C 501.128906 116.558594 502.011719 117.558594 502.898438 118.667969 C 504.230469 120.273438 505.449219 122.101562 506.558594 123.984375 L 587.785156 247.132812 C 593.328125 254.445312 596.820312 264.363281 596.488281 273.449219 " fill-opacity="1" fill-rule="nonzero"/><path fill="#ef8641" d="M 572.957031 245.46875 C 571.621094 244.691406 569.667969 244.066406 567.667969 243.578125 C 562.867188 242.40625 557.792969 243.3125 553.589844 245.898438 L 558.410156 246.386719 C 556.535156 247.613281 554.890625 249.234375 553.703125 251.308594 C 545.234375 266.117188 556.671875 312.828125 556.671875 312.828125 L 570.671875 304.988281 L 583.769531 281.128906 C 591.113281 268.347656 585.710938 252.863281 572.957031 245.46875 " fill-opacity="1" fill-rule="nonzero"/><path fill="#ffd474" d="M 517.472656 298.921875 C 517.472656 298.921875 535.386719 267.777344 543.855469 252.964844 C 547.710938 246.21875 556.148438 243.671875 563.113281 247.125 C 576.3125 253.683594 581.265625 270.007812 573.925781 282.789062 L 554.4375 316.714844 L 517.472656 298.921875 " fill-opacity="1" fill-rule="nonzero"/><path fill="#343c6b" d="M 569.992188 271.757812 C 570.257812 264.976562 566.132812 257.265625 560.78125 254.527344 C 558.257812 253.234375 555.933594 253.324219 554.128906 254.441406 L 550.328125 256.574219 L 551.742188 257.152344 C 551.101562 258.433594 550.6875 259.992188 550.613281 261.84375 C 550.351562 268.621094 554.476562 276.335938 559.828125 279.074219 C 560.964844 279.660156 562.054688 279.914062 563.085938 279.980469 L 562.152344 281.699219 L 566.621094 279.121094 C 568.574219 277.839844 569.855469 275.269531 569.992188 271.757812 " fill-opacity="1" fill-rule="nonzero"/><path fill="#445393" d="M 565.957031 274.078125 C 565.691406 280.859375 561.140625 284.132812 555.789062 281.394531 C 550.4375 278.660156 546.3125 270.941406 546.578125 264.164062 C 546.839844 257.386719 551.390625 254.109375 556.742188 256.847656 C 562.09375 259.582031 566.21875 267.300781 565.957031 274.078125 " fill-opacity="1" fill-rule="nonzero"/><path fill="#343c6b" d="M 498.972656 137.144531 C 499.214844 130.917969 495.421875 123.824219 490.503906 121.3125 C 488.1875 120.121094 486.050781 120.203125 484.394531 121.230469 L 480.902344 123.1875 L 482.195312 123.726562 C 481.609375 124.898438 481.226562 126.332031 481.160156 128.035156 C 480.921875 134.261719 484.710938 141.355469 489.628906 143.871094 C 490.675781 144.40625 491.675781 144.640625 492.628906 144.699219 L 491.765625 146.28125 L 495.875 143.914062 C 497.671875 142.734375 498.847656 140.375 498.972656 137.144531 " fill-opacity="1" fill-rule="nonzero"/><path fill="#445393" d="M 495.261719 139.277344 C 495.019531 145.507812 490.839844 148.519531 485.921875 146.003906 C 481 143.488281 477.210938 136.394531 477.453125 130.167969 C 477.695312 123.9375 481.878906 120.925781 486.796875 123.441406 C 491.714844 125.957031 495.507812 133.050781 495.261719 139.277344 " fill-opacity="1" fill-rule="nonzero"/><path fill="#ffb451" d="M 491.105469 137.804688 C 490.957031 141.613281 488.402344 143.457031 485.394531 141.914062 C 482.386719 140.378906 480.070312 136.042969 480.21875 132.234375 C 480.363281 128.421875 482.921875 126.582031 485.929688 128.121094 C 488.9375 129.660156 491.257812 133.996094 491.105469 137.804688 " fill-opacity="1" fill-rule="nonzero"/><path fill="#ffb451" d="M 560.582031 272.390625 C 560.433594 276.199219 557.875 278.039062 554.867188 276.5 C 551.863281 274.960938 549.542969 270.625 549.691406 266.816406 C 549.839844 263.007812 552.394531 261.167969 555.40625 262.703125 C 558.414062 264.246094 560.730469 268.578125 560.582031 272.390625 " fill-opacity="1" fill-rule="nonzero"/><path fill="#343c6b" d="M 684.078125 178.886719 L 618.707031 141.808594 C 617.097656 140.902344 615.054688 140.902344 612.855469 142.027344 C 608.003906 144.507812 604.269531 151.496094 604.507812 157.636719 C 604.644531 161.070312 605.988281 163.507812 608 164.5625 L 673.804688 201.941406 L 684.078125 178.886719 " fill-opacity="1" fill-rule="nonzero"/><path fill="#d4dfff" d="M 687.65625 185.855469 C 687.417969 179.71875 683.292969 176.75 678.445312 179.230469 C 673.597656 181.710938 669.859375 188.699219 670.097656 194.84375 C 670.335938 200.980469 674.460938 203.949219 679.308594 201.46875 C 684.160156 198.988281 687.894531 192 687.65625 185.855469 " fill-opacity="1" fill-rule="nonzero"/><path fill="#ffb451" d="M 733.09375 191.117188 L 692.304688 167.808594 C 688.789062 165.828125 684.308594 165.828125 679.492188 168.292969 C 668.871094 173.722656 660.691406 189.027344 661.210938 202.476562 C 661.507812 209.992188 664.460938 215.332031 668.855469 217.636719 L 710.597656 241.605469 L 733.09375 191.117188 " fill-opacity="1" fill-rule="nonzero"/><path fill="#ffd474" d="M 740.933594 206.386719 C 740.40625 192.9375 731.378906 186.441406 720.765625 191.871094 C 710.148438 197.300781 701.964844 212.609375 702.488281 226.058594 C 703.011719 239.503906 712.039062 246.003906 722.65625 240.570312 C 733.273438 235.140625 741.457031 219.835938 740.933594 206.386719 " fill-opacity="1" fill-rule="nonzero"/><path fill="#343c6b" d="M 731.125 231.4375 C 731.640625 218.136719 723.546875 203 713.046875 197.628906 C 708.101562 195.097656 703.539062 195.261719 700.003906 197.457031 L 688.054688 204.21875 C 688.054688 204.21875 693.242188 208.351562 693.101562 211.984375 C 692.585938 225.285156 710.375 254.039062 710.375 254.039062 L 724.507812 245.882812 C 728.34375 243.371094 730.855469 238.332031 731.125 231.4375 " fill-opacity="1" fill-rule="nonzero"/><path fill="#6275b3" d="M 718.222656 238.785156 C 717.753906 252.183594 708.839844 258.644531 698.277344 253.140625 C 687.820312 247.6875 679.683594 232.632812 680.203125 219.332031 C 680.71875 206.03125 689.648438 199.601562 700.148438 204.972656 C 710.648438 210.34375 718.691406 225.480469 718.222656 238.785156 " fill-opacity="1" fill-rule="nonzero"/><path fill="#ffd474" d="M 708.160156 235.335938 C 707.886719 243.101562 702.722656 246.847656 696.601562 243.65625 C 690.539062 240.496094 685.824219 231.773438 686.125 224.0625 C 686.421875 216.355469 691.597656 212.628906 697.683594 215.742188 C 703.769531 218.855469 708.429688 227.625 708.160156 235.335938 " fill-opacity="1" fill-rule="nonzero"/><path fill="#b8c9ff" d="M 808.046875 311.003906 L 1027.214844 437.230469 L 675.421875 642.417969 L 454.757812 516.355469 L 808.046875 311.003906 " fill-opacity="1" fill-rule="nonzero"/><path fill="#93a1de" d="M 1027.214844 437.230469 L 1027.214844 523.320312 L 675.421875 728.511719 L 675.421875 642.417969 L 1027.214844 437.230469 " fill-opacity="1" fill-rule="nonzero"/><path fill="#d4dfff" d="M 454.757812 516.355469 L 454.757812 602.414062 L 675.421875 728.511719 L 675.421875 642.417969 L 454.757812 516.355469 " fill-opacity="1" fill-rule="nonzero"/><path fill="#2e3666" d="M 540.871094 466.171875 L 824.449219 301.472656 L 834.460938 307.269531 L 550.53125 471.757812 L 540.871094 466.171875 " fill-opacity="1" fill-rule="nonzero"/><path fill="#343c6b" d="M 959 379.367188 L 675.421875 544.0625 L 663.910156 537.398438 L 947.84375 372.910156 L 959 379.367188 " fill-opacity="1" fill-rule="nonzero"/><path fill="#445393" d="M 947.84375 372.910156 L 663.910156 537.398438 L 556.976562 475.492188 L 840.90625 311.003906 L 947.84375 372.910156 " fill-opacity="1" fill-rule="nonzero"/><path fill="#1f2644" d="M 834.460938 307.269531 L 840.90625 311.003906 L 556.976562 475.492188 L 550.53125 471.757812 L 834.460938 307.269531 " fill-opacity="1" fill-rule="nonzero"/><path fill="#93a1de" d="M 959 379.367188 L 959 428.160156 L 675.421875 592.859375 L 675.421875 544.0625 L 959 379.367188 " fill-opacity="1" fill-rule="nonzero"/><path fill="#d4dfff" d="M 540.871094 466.171875 L 540.867188 514.949219 L 675.421875 592.859375 L 675.421875 544.0625 L 540.871094 466.171875 " fill-opacity="1" fill-rule="nonzero"/><path fill="#d4dfff" d="M 787.5625 353.53125 L 787.5625 372.570312 L 840.019531 402.859375 L 840.027344 383.789062 L 787.5625 353.53125 " fill-opacity="1" fill-rule="nonzero"/><path fill="#93a1de" d="M 840.027344 383.789062 L 840.019531 402.859375 L 892.460938 372.570312 L 892.460938 353.53125 L 840.027344 383.789062 " fill-opacity="1" fill-rule="nonzero"/><path fill="#b8c9ff" d="M 787.5625 353.53125 L 840.027344 383.789062 L 892.460938 353.53125 L 840.039062 322.890625 L 787.5625 353.53125 " fill-opacity="1" fill-rule="nonzero"/><path fill="#445393" d="M 837.285156 353.15625 L 859.390625 365.902344 L 881.472656 353.15625 L 859.390625 340.246094 L 837.285156 353.15625 " fill-opacity="1" fill-rule="nonzero"/><path fill="#343c6b" d="M 829.648438 370.410156 L 840.53125 376.679688 L 851.398438 370.410156 L 840.53125 364.054688 L 829.648438 370.410156 " fill-opacity="1" fill-rule="nonzero"/><path fill="#343c6b" d="M 815.089844 361.96875 L 825.972656 368.242188 L 836.839844 361.96875 L 825.972656 355.613281 L 815.089844 361.96875 " fill-opacity="1" fill-rule="nonzero"/><path fill="#445393" d="M 800.535156 353.527344 L 811.417969 359.800781 L 822.285156 353.527344 L 811.417969 347.171875 L 800.535156 353.527344 " fill-opacity="1" fill-rule="nonzero"/><path fill="#343c6b" d="M 828.15625 347.730469 L 832.699219 350.1875 L 854.78125 337.445312 L 850.261719 334.820312 L 828.15625 347.730469 " fill-opacity="1" fill-rule="nonzero"/><path fill="#343c6b" d="M 819.015625 342.433594 L 823.5625 344.890625 L 845.640625 332.148438 L 841.125 329.523438 L 819.015625 342.433594 " fill-opacity="1" fill-rule="nonzero"/><path fill="#d4dfff" d="M 699.957031 404.234375 L 699.957031 423.273438 L 752.417969 453.5625 L 752.425781 434.492188 L 699.957031 404.234375 " fill-opacity="1" fill-rule="nonzero"/><path fill="#93a1de" d="M 752.425781 434.492188 L 752.417969 453.5625 L 804.859375 423.273438 L 804.855469 404.234375 L 752.425781 434.492188 " fill-opacity="1" fill-rule="nonzero"/><path fill="#b8c9ff" d="M 699.957031 404.234375 L 752.425781 434.492188 L 804.855469 404.234375 L 752.441406 373.59375 L 699.957031 404.234375 " fill-opacity="1" fill-rule="nonzero"/><path fill="#343c6b" d="M 749.683594 403.859375 L 771.792969 416.601562 L 793.871094 403.859375 L 771.792969 390.949219 L 749.683594 403.859375 " fill-opacity="1" fill-rule="nonzero"/><path fill="#343c6b" d="M 742.046875 421.109375 L 752.929688 427.382812 L 763.800781 421.109375 L 752.929688 414.753906 L 742.046875 421.109375 " fill-opacity="1" fill-rule="nonzero"/><path fill="#445393" d="M 727.492188 412.667969 L 738.371094 418.941406 L 749.242188 412.667969 L 738.371094 406.316406 L 727.492188 412.667969 " fill-opacity="1" fill-rule="nonzero"/><path fill="#343c6b" d="M 712.933594 404.230469 L 723.816406 410.503906 L 734.6875 404.230469 L 723.816406 397.875 L 712.933594 404.230469 " fill-opacity="1" fill-rule="nonzero"/><path fill="#445393" d="M 740.554688 398.433594 L 745.101562 400.890625 L 767.179688 388.148438 L 762.660156 385.523438 L 740.554688 398.433594 " fill-opacity="1" fill-rule="nonzero"/><path fill="#445393" d="M 731.417969 393.132812 L 735.964844 395.589844 L 758.042969 382.847656 L 753.523438 380.222656 L 731.417969 393.132812 " fill-opacity="1" fill-rule="nonzero"/><path fill="#d4dfff" d="M 612.359375 454.9375 L 612.359375 473.976562 L 664.820312 504.261719 L 664.828125 485.195312 L 612.359375 454.9375 " fill-opacity="1" fill-rule="nonzero"/><path fill="#93a1de" d="M 664.828125 485.195312 L 664.820312 504.261719 L 717.261719 473.976562 L 717.257812 454.9375 L 664.828125 485.195312 " fill-opacity="1" fill-rule="nonzero"/><path fill="#b8c9ff" d="M 612.359375 454.9375 L 664.828125 485.195312 L 717.257812 454.9375 L 664.839844 424.296875 L 612.359375 454.9375 " fill-opacity="1" fill-rule="nonzero"/><path fill="#343c6b" d="M 662.085938 454.558594 L 684.191406 467.304688 L 706.273438 454.558594 L 684.191406 441.652344 L 662.085938 454.558594 " fill-opacity="1" fill-rule="nonzero"/><path fill="#343c6b" d="M 654.445312 471.8125 L 665.328125 478.085938 L 676.195312 471.8125 L 665.328125 465.457031 L 654.445312 471.8125 " fill-opacity="1" fill-rule="nonzero"/><path fill="#445393" d="M 639.890625 463.371094 L 650.773438 469.644531 L 661.640625 463.371094 L 650.773438 457.019531 L 639.890625 463.371094 " fill-opacity="1" fill-rule="nonzero"/><path fill="#343c6b" d="M 625.332031 454.929688 L 636.214844 461.207031 L 647.085938 454.929688 L 636.214844 448.574219 L 625.332031 454.929688 " fill-opacity="1" fill-rule="nonzero"/><path fill="#445393" d="M 652.953125 449.132812 L 657.5 451.589844 L 679.578125 438.847656 L 675.0625 436.222656 L 652.953125 449.132812 " fill-opacity="1" fill-rule="nonzero"/><path fill="#445393" d="M 643.816406 443.835938 L 648.359375 446.292969 L 670.445312 433.546875 L 665.925781 430.925781 L 643.816406 443.835938 " fill-opacity="1" fill-rule="nonzero"/></svg>